<svg xmlns="http://www.w3.org/2000/svg" viewBox="0 0 64 64" fill="none">
  <defs>
    <linearGradient id="bg" x1="0" y1="0" x2="64" y2="64" gradientUnits="userSpaceOnUse">
      <stop offset="0%" stop-color="#22c55e"/>
      <stop offset="100%" stop-color="#15803d"/>
    </linearGradient>
  </defs>
  <circle cx="32" cy="32" r="30" fill="url(#bg)"/>
  <!-- Fork -->
  <line x1="21" y1="12" x2="21" y2="30" stroke="white" stroke-width="3.5" stroke-linecap="round"/>
  <line x1="29" y1="12" x2="29" y2="30" stroke="white" stroke-width="3.5" stroke-linecap="round"/>
  <path d="M21 30c0 3 1.8 5 4 5s4-2 4-5" stroke="white" stroke-width="3.5" stroke-linecap="round" fill="none"/>
  <line x1="25" y1="35" x2="25" y2="54" stroke="white" stroke-width="3.5" stroke-linecap="round"/>
  <!-- Leaf -->
  <path d="M39 12c-5.5 3-8 10-7 17 1.5-7 7-11 12-12.5-2.5 5.5-2.5 11-1 15 3-7 7-14 7-19-3-1.5-7-1.5-11 -0.5z" fill="white" opacity="0.95"/>
  <path d="M40 16c-1.5 4-1.5 10 0 14" stroke="url(#bg)" stroke-width="1.5" stroke-linecap="round" fill="none"/>
</svg>
